<svg width="115" height="28" viewBox="0 0 115 28" fill="none" xmlns="http://www.w3.org/2000/svg">
<path d="M18.0627 18.4052C16.8542 18.34 15.6293 18.454 14.4208 18.1608C12.804 17.7536 11.4158 16.923 10.0929 15.9783C9.08036 15.2453 8.08413 14.4961 7.05524 13.7957C5.81404 12.9325 4.44219 12.5253 2.92335 12.5904C1.95979 12.623 0.979895 12.5741 0 12.5579C0 12.509 0 12.4438 0 12.395C0.261305 11.2548 0.261305 10.1147 0 8.97455C0 8.92568 0 8.86053 0 8.81167C0.751253 8.79538 1.51884 8.71394 2.27009 8.79538C4.93214 9.08856 6.98991 7.8344 8.90071 6.25449C11.5628 4.07194 14.4861 2.62233 18.0464 2.96437C18.1281 2.85036 18.0791 2.80149 17.9647 2.76892C17.4748 2.28028 17.0175 1.75908 16.4786 1.30302C16.0213 0.912114 15.9396 0.521208 16.1519 0C16.2663 0 16.3642 0 16.4786 0C17.4095 0.260604 18.324 0.260604 19.2549 0C19.3039 0 19.3693 0 19.4182 0C21.0514 1.17272 22.3253 2.73634 23.7624 4.1208C24.334 4.67458 24.334 5.16321 23.7624 5.74957C22.6356 6.88972 21.5087 8.02986 20.3655 9.15371C19.9409 9.57719 19.4346 9.78893 18.814 9.75636C18.128 9.74007 17.4585 9.74007 16.7725 9.74007C16.4622 9.74007 16.1519 9.72378 16.0049 9.39803C15.858 9.0397 16.1519 8.84424 16.3479 8.64879C16.9032 8.09501 17.4585 7.55751 18.1117 6.906C16.4459 6.72684 14.9924 6.84085 13.6205 7.65524C12.2324 8.46963 11.0075 9.51204 9.68463 10.4242C9.37432 10.6359 9.42332 10.7499 9.70096 10.9454C10.9585 11.8086 12.167 12.6882 13.3919 13.5351C14.7801 14.4798 16.3479 14.659 18.1934 14.4472C17.4911 13.7794 16.9032 13.2094 16.3152 12.6393C16.1193 12.4438 15.8906 12.2484 16.0539 11.9389C16.1846 11.662 16.4622 11.6132 16.7399 11.6132C17.4748 11.6132 18.2097 11.6132 18.9446 11.6294C19.5162 11.6457 19.9899 11.8575 20.3981 12.2647C21.5087 13.3885 22.6356 14.4961 23.7298 15.6037C24.3341 16.2226 24.3504 16.6786 23.7624 17.2813C22.6519 18.4052 21.5413 19.5127 20.4308 20.6366C20.0062 21.0601 19.4999 21.2881 18.8956 21.2881C18.128 21.2881 17.3768 21.2555 16.6092 21.2392C16.3806 21.2392 16.1683 21.1904 16.0539 20.9786C15.907 20.718 16.0539 20.5063 16.2336 20.3271C16.8052 19.757 17.3931 19.187 17.9647 18.6006C18.0954 18.568 18.1444 18.5192 18.0627 18.4052Z" fill="#E9A520"/>
<path d="M103.216 27.3797C103.216 26.8422 103.248 26.2884 103.199 25.7509C103.15 25.1157 103.346 24.8877 104.016 24.9203C105.584 24.9691 107.168 24.9203 108.703 24.6108C110.45 24.2525 111.675 22.7051 111.692 20.9298C111.724 17.2976 111.692 13.6491 111.708 10.017C111.708 9.65863 111.741 9.28401 111.202 9.31659C109.65 9.39803 108.115 9.25144 106.563 9.44689C103.967 9.78893 102.742 12.5741 103.134 14.8381C103.689 18.112 107.298 19.1218 110.058 17.6071C110.695 17.265 110.744 17.3953 110.744 18.0142C110.744 19.9362 110.205 20.5226 107.935 20.7017C104.669 20.946 101.501 19.073 100.717 15.6688C99.8185 11.776 101.844 8.16016 105.943 7.10145C106.221 7.0363 106.531 7.0363 106.841 7.0363C109.34 7.0363 111.855 7.0363 114.354 7.0363C114.354 11.7597 114.354 16.4832 114.354 21.2066C114.305 21.2718 114.223 21.337 114.223 21.4021C113.88 24.3339 112.067 25.9627 109.422 26.9074C108.785 27.1354 108.099 27.0865 107.494 27.396C106.041 27.3797 104.636 27.3797 103.216 27.3797Z" fill="#CED2EA"/>
<path d="M0 8.97456C0.261305 10.1147 0.261305 11.2548 0 12.395C0 11.2548 0 10.1147 0 8.97456Z" fill="#EBAC32"/>
<path d="M19.2712 0.0162811C18.3403 0.276885 17.4258 0.276885 16.4949 0.0162811C17.4258 0.0162811 18.3403 0.0162811 19.2712 0.0162811Z" fill="#EFC36C"/>
<path d="M73.3941 6.90601C72.3162 8.76282 71.32 10.5056 70.2911 12.2158C70.0135 12.6882 69.9808 12.8999 70.5687 13.1279C72.2182 13.7794 72.9858 15.1476 73.2961 16.809C73.5084 17.9328 73.4431 19.073 73.4594 20.2131C73.4594 20.5714 73.3451 20.718 72.9858 20.6854C72.9368 20.6854 72.8715 20.6854 72.8225 20.6854C70.8954 20.7506 70.8464 20.7506 70.8954 18.8286C70.9934 15.2128 68.2497 14.3007 65.6366 14.5938C65.163 14.6427 65.163 14.9033 65.163 15.2616C65.163 16.8415 65.1467 18.4052 65.1793 19.9851C65.1956 20.5551 65.016 20.718 64.4444 20.7017C62.6479 20.6854 62.6479 20.718 62.6479 18.9427C62.6479 13.0791 62.6643 7.23177 62.6316 1.36818C62.6316 0.732959 62.7786 0.537506 63.4318 0.537506C65.1467 0.570082 65.1467 0.537506 65.1467 2.23143C65.1467 5.3261 65.163 8.42078 65.1303 11.4992C65.1303 12.0692 65.2283 12.2158 65.8979 12.3298C67.4167 12.5904 67.9883 11.7923 68.5273 10.6359C69.0499 9.52834 69.7032 8.50221 70.2584 7.41093C70.4544 7.02003 70.7157 6.85715 71.1567 6.88973C71.8753 6.93859 72.5612 6.90601 73.3941 6.90601Z" fill="#15A9E0"/>
<path d="M49.6807 13.8609C49.6643 17.9165 46.5777 21.0275 42.5764 21.0112C38.6242 20.9786 35.5865 17.8025 35.6028 13.7306C35.6192 9.7075 38.7059 6.59654 42.6581 6.62911C46.6103 6.6454 49.697 9.82151 49.6807 13.8609ZM47.0839 13.8772C47.1003 11.434 45.8101 9.59348 43.7686 9.17C41.5149 8.69766 39.5224 9.62606 38.6569 11.548C37.677 13.7143 38.2649 16.4832 39.996 17.7699C40.4207 18.0794 40.8779 18.2911 41.3842 18.4214C44.5362 19.2195 47.0676 17.1999 47.0839 13.8772Z" fill="#16A9E0"/>
<path d="M90.7709 6.69425C94.7068 6.51509 97.9078 9.93551 97.8588 13.8609C97.8098 17.7699 94.9191 21.0275 90.7709 20.9949C86.7696 20.9786 83.7973 17.8514 83.7809 13.7631C83.7646 9.74006 86.9656 6.4988 90.7709 6.69425ZM90.8198 9.13741C88.0925 8.90938 86.3613 11.1571 86.394 13.7957C86.4267 16.6624 88.1578 18.5517 90.7872 18.5843C93.5472 18.6169 95.262 16.3529 95.262 13.8771C95.2457 11.1408 93.4982 8.90938 90.8198 9.13741Z" fill="#CED2EA"/>
<path d="M25.9182 9.33287C26.2938 8.55106 26.5878 7.91584 26.8981 7.2969C26.9471 7.18289 27.0614 6.98744 27.1268 6.98744C28.074 7.02001 27.878 6.31964 27.9597 5.76586C28.3353 3.09467 30.6217 1.00984 33.5451 0.667793C34.9332 0.504915 34.8679 0.504915 34.9496 1.90566C34.9986 2.7852 34.7373 3.0458 33.8717 3.11095C31.8139 3.27383 30.6054 4.5117 30.4911 6.31964C30.4584 6.79198 30.6054 6.93857 31.0627 6.92229C31.7976 6.88971 32.5325 6.92229 33.2674 6.906C33.6594 6.88971 33.7574 7.0363 33.7737 7.42721C33.8554 9.33287 33.8717 9.33287 31.9609 9.33287C30.4747 9.33287 30.4747 9.33287 30.4747 10.8313C30.4747 13.812 30.4584 16.8089 30.4911 19.7896C30.5074 20.4737 30.3767 20.7343 29.6255 20.718C27.8617 20.6529 27.8617 20.7017 27.8617 18.9101C27.8617 16.0271 27.829 13.1605 27.878 10.2776C27.8943 9.52833 27.6984 9.21886 26.9308 9.33287C26.6368 9.38174 26.3428 9.33287 25.9182 9.33287Z" fill="#15A9E0"/>
<path d="M79.0448 8.35563C79.0448 10.587 79.0612 12.8022 79.0285 15.0336C79.0285 15.5874 79.1265 16.1086 79.2408 16.6298C79.4368 17.5582 80.3677 18.2423 81.5272 18.226C82.2132 18.226 82.3275 18.4866 82.3275 19.0893C82.3112 20.7506 82.3275 20.7017 80.6943 20.5552C78.016 20.3108 76.7421 18.7961 76.5788 16.1575C76.2848 11.206 76.5461 6.23822 76.4318 1.28675C76.4155 0.74925 76.5951 0.521222 77.183 0.504934C78.9958 0.456071 79.0612 0.504934 79.0612 2.26401C79.0448 4.28369 79.0448 6.31966 79.0448 8.35563Z" fill="#CED2EA"/>
<path d="M52.31 15.7828C52.359 14.4472 52.2284 12.851 52.408 11.2385C52.7183 8.53477 54.0248 7.19917 56.7522 6.97114C57.9444 6.87342 59.1366 6.92228 60.3452 6.8897C60.7371 6.87342 60.8514 7.03629 60.8678 7.41091C60.9821 9.34915 60.9984 9.33287 59.0713 9.34915C58.3364 9.34915 57.6015 9.33286 56.8665 9.39802C55.7723 9.51203 55.2334 10.0495 55.0047 11.1245C54.8741 11.7923 54.8578 12.4764 54.8578 13.1442C54.8578 15.4245 54.8414 17.7048 54.8741 19.9851C54.8741 20.5063 54.7598 20.6854 54.2045 20.6854C52.2937 20.6854 52.2937 20.718 52.2937 18.7798C52.31 17.8839 52.31 16.9555 52.31 15.7828Z" fill="#19AAE0"/>
<path d="M18.0629 18.4052C18.1448 18.5194 18.0957 18.5684 17.9811 18.6011C17.9974 18.5358 18.0302 18.4705 18.0629 18.4052Z" fill="#F2CC82"/>
<path d="M18.0629 2.96484C18.0302 2.89954 18.0138 2.83423 17.9811 2.76892C18.0957 2.80157 18.1448 2.86688 18.0629 2.96484Z" fill="#F2CC82"/>
</svg>
