<svg width="98" height="21" viewBox="0 0 98 21" fill="none" xmlns="http://www.w3.org/2000/svg">
<path d="M92.8948 -2.40979e-06L87.7896 5.10524L92.8948 10.2105L98 5.10524L92.8948 -2.40979e-06Z" fill="#0055FF"/>
<path d="M22.8088 5.10056H19.9436L19.6405 5.3794L16.6836 15.5094L16.6687 15.5187L13.3525 5.36817L13.055 5.10056H10.042L9.74444 5.36817L6.44889 15.4476L6.39462 15.4177L6.37965 15.4046L3.42468 5.37753L3.12338 5.10056H0.198369L0 5.37191L4.6018 19.6414L4.92743 19.9296H7.82812L8.15374 19.6414L11.4437 9.43288H11.5054L14.816 19.6433L15.1416 19.9296H18.0797L18.4053 19.6414L23.0071 5.37191L22.8088 5.10056Z" fill="black"/>
<path d="M55.3863 5.10056H52.4856L52.1675 5.3663L48.1122 15.9248L48.0785 15.951L44.068 5.36817L43.748 5.10056H40.7912L40.6134 5.3663L46.3867 19.6527L46.7273 19.9296H49.3922L49.7328 19.6545L55.5641 5.36817L55.3863 5.10056Z" fill="black"/>
<path d="M59.5839 10.6718C60.063 8.92576 61.5246 7.63074 63.4503 7.63074C65.9935 7.63074 67.049 9.42917 67.3484 10.6718H59.5839ZM70.3109 13.318L70.5878 13.0466V12.6199C70.5878 10.3069 69.9328 8.31568 68.6397 6.91773C67.3465 5.51978 65.608 4.81613 63.4503 4.81613C61.373 4.81613 59.6438 5.58341 58.3076 7.09364C56.9848 8.58033 56.2699 10.5104 56.3052 12.5001C56.3052 14.7028 56.9995 16.5518 58.3638 17.9984C59.728 19.445 61.5452 20.1842 63.7328 20.1842C65.3104 20.1842 66.6635 19.8099 67.7545 19.0426C68.8455 18.2753 69.989 17.0552 70.3745 15.3634L70.1612 15.0827H67.4794L67.1051 15.3578C66.4258 16.7183 65.389 17.3621 63.6898 17.3621C62.5909 17.3735 61.5319 16.9512 60.7423 16.1868C59.9545 15.4495 59.5016 14.5662 59.393 13.3161L70.3109 13.318Z" fill="black"/>
<path d="M34.3909 16.0614C34.0093 16.4826 33.542 16.8174 33.0204 17.0433C32.4989 17.2692 31.9351 17.3811 31.3667 17.3714C30.1934 17.3714 29.34 16.9335 28.496 16.0446C27.652 15.1557 27.2309 13.9692 27.2309 12.4889C27.2309 11.0086 27.6557 9.82775 28.496 8.93322C29.3363 8.03868 30.1934 7.60452 31.3667 7.60452C31.935 7.59522 32.4987 7.70727 33.0202 7.93317C33.5417 8.15907 34.009 8.49363 34.3909 8.91451C34.9455 9.51124 35.326 10.2484 35.4913 11.046V13.9318C35.3269 14.7297 34.9463 15.4671 34.3909 16.0633V16.0614ZM35.9162 5.10244L35.641 5.3794V6.85595L35.5943 6.91209C35.1824 6.39341 34.674 5.95937 34.0971 5.63392C33.9574 5.55158 33.8133 5.47485 33.6648 5.40373C32.811 5.00085 31.8766 4.79796 30.9326 4.8105C29.0612 4.8105 27.4349 5.55906 26.0781 7.02812C24.7214 8.49718 24.0458 10.3312 24.0458 12.502C24.0458 14.6728 24.727 16.5068 26.0781 17.9759C27.4293 19.4449 29.0612 20.1916 30.9326 20.1916C31.8702 20.2044 32.7985 20.0047 33.648 19.6078C33.8071 19.531 33.9624 19.4487 34.1102 19.3607C34.663 19.045 35.1517 18.6287 35.5512 18.1331C35.5643 18.12 35.6242 18.1331 35.6373 18.1331V19.6583L35.9124 19.9353H38.3808L38.6578 19.6583V5.37754L38.3808 5.10057L35.9162 5.10244Z" fill="black"/>
<path d="M80.7496 11.353C80.7496 11.353 79.1345 11.0142 77.7984 10.7036C76.5688 10.4191 75.9625 10.0654 75.9625 9.1896C75.9625 8.26325 76.8477 7.50533 78.7453 7.50533C80.6017 7.50533 81.6348 8.34185 81.6348 9.06235L81.9585 9.3468H84.6608L84.876 9.07732C84.876 7.14789 83.1918 4.81985 78.8145 4.81985C74.2389 4.81985 72.8073 7.50159 72.8073 9.23265C72.8073 10.683 73.3294 12.3991 76.8364 13.2113C76.8364 13.2113 78.5076 13.5856 79.8457 13.8869C81.3671 14.2349 82.0053 14.7458 82.0053 15.6422C82.0053 16.4526 81.1968 17.422 79.0896 17.422C77.1265 17.422 75.9457 16.4862 75.8914 15.3634L75.5508 15.0864H72.7867L72.5734 15.3671C72.826 17.8524 74.6656 20.186 79.0709 20.186C84.0564 20.186 85.0744 17.1431 85.0744 15.5449C85.0744 13.434 83.8542 12.0304 80.7496 11.3548" fill="black"/>
</svg>
