<svg width="237" height="39" viewBox="0 0 237 39" fill="none" xmlns="http://www.w3.org/2000/svg">
<path d="M92.8948 9L87.7896 14.1052L92.8948 19.2105L98 14.1052L92.8948 9Z" fill="#0055FF"/>
<path d="M22.8088 14.1006H19.9436L19.6405 14.3794L16.6836 24.5094L16.6687 24.5187L13.3525 14.3682L13.055 14.1006H10.042L9.74444 14.3682L6.44889 24.4476L6.39462 24.4177L6.37965 24.4046L3.42468 14.3775L3.12338 14.1006H0.198369L0 14.3719L4.6018 28.6414L4.92743 28.9296H7.82812L8.15374 28.6414L11.4437 18.4329H11.5054L14.816 28.6433L15.1416 28.9296H18.0797L18.4053 28.6414L23.0071 14.3719L22.8088 14.1006Z" fill="black"/>
<path d="M55.3863 14.1006H52.4856L52.1675 14.3663L48.1122 24.9248L48.0785 24.951L44.068 14.3682L43.748 14.1006H40.7912L40.6134 14.3663L46.3867 28.6527L46.7273 28.9296H49.3922L49.7328 28.6545L55.5641 14.3682L55.3863 14.1006Z" fill="black"/>
<path d="M59.5839 19.6718C60.063 17.9258 61.5246 16.6307 63.4503 16.6307C65.9935 16.6307 67.049 18.4292 67.3484 19.6718H59.5839ZM70.3109 22.318L70.5878 22.0466V21.6199C70.5878 19.3069 69.9328 17.3157 68.6397 15.9177C67.3465 14.5198 65.608 13.8161 63.4503 13.8161C61.373 13.8161 59.6438 14.5834 58.3076 16.0936C56.9848 17.5803 56.2699 19.5104 56.3052 21.5001C56.3052 23.7028 56.9995 25.5518 58.3638 26.9984C59.728 28.445 61.5452 29.1842 63.7328 29.1842C65.3104 29.1842 66.6635 28.8099 67.7545 28.0426C68.8455 27.2753 69.989 26.0552 70.3745 24.3634L70.1612 24.0827H67.4794L67.1051 24.3578C66.4258 25.7183 65.389 26.3621 63.6898 26.3621C62.5909 26.3735 61.5319 25.9512 60.7423 25.1868C59.9545 24.4495 59.5016 23.5662 59.393 22.3161L70.3109 22.318Z" fill="black"/>
<path d="M34.3909 25.0614C34.0093 25.4826 33.542 25.8174 33.0204 26.0433C32.4989 26.2692 31.9351 26.3811 31.3667 26.3714C30.1934 26.3714 29.34 25.9335 28.496 25.0446C27.652 24.1557 27.2309 22.9692 27.2309 21.4889C27.2309 20.0086 27.6557 18.8278 28.496 17.9332C29.3363 17.0387 30.1934 16.6045 31.3667 16.6045C31.935 16.5952 32.4987 16.7073 33.0202 16.9332C33.5417 17.1591 34.009 17.4936 34.3909 17.9145C34.9455 18.5112 35.326 19.2484 35.4913 20.046V22.9318C35.3269 23.7297 34.9463 24.4671 34.3909 25.0633V25.0614ZM35.9162 14.1024L35.641 14.3794V15.856L35.5943 15.9121C35.1824 15.3934 34.674 14.9594 34.0971 14.6339C33.9574 14.5516 33.8133 14.4748 33.6648 14.4037C32.811 14.0008 31.8766 13.798 30.9326 13.8105C29.0612 13.8105 27.4349 14.5591 26.0781 16.0281C24.7214 17.4972 24.0458 19.3312 24.0458 21.502C24.0458 23.6728 24.727 25.5068 26.0781 26.9759C27.4293 28.4449 29.0612 29.1916 30.9326 29.1916C31.8702 29.2044 32.7985 29.0047 33.648 28.6078C33.8071 28.531 33.9624 28.4487 34.1102 28.3607C34.663 28.045 35.1517 27.6287 35.5512 27.1331C35.5643 27.12 35.6242 27.1331 35.6373 27.1331V28.6583L35.9124 28.9353H38.3808L38.6578 28.6583V14.3775L38.3808 14.1006L35.9162 14.1024Z" fill="black"/>
<path d="M80.7496 20.353C80.7496 20.353 79.1345 20.0142 77.7984 19.7036C76.5688 19.4191 75.9625 19.0654 75.9625 18.1896C75.9625 17.2633 76.8477 16.5053 78.7453 16.5053C80.6017 16.5053 81.6348 17.3419 81.6348 18.0623L81.9585 18.3468H84.6608L84.876 18.0773C84.876 16.1479 83.1918 13.8199 78.8145 13.8199C74.2389 13.8199 72.8073 16.5016 72.8073 18.2326C72.8073 19.683 73.3294 21.3991 76.8364 22.2113C76.8364 22.2113 78.5076 22.5856 79.8457 22.8869C81.3671 23.2349 82.0053 23.7458 82.0053 24.6422C82.0053 25.4526 81.1968 26.422 79.0896 26.422C77.1265 26.422 75.9457 25.4862 75.8914 24.3634L75.5508 24.0864H72.7867L72.5734 24.3671C72.826 26.8524 74.6656 29.186 79.0709 29.186C84.0564 29.186 85.0744 26.1431 85.0744 24.5449C85.0744 22.434 83.8542 21.0304 80.7496 20.3548" fill="black"/>
<path d="M140.063 27.4052C138.854 27.34 137.629 27.454 136.421 27.1608C134.804 26.7536 133.416 25.923 132.093 24.9783C131.08 24.2453 130.084 23.4961 129.055 22.7957C127.814 21.9325 126.442 21.5253 124.923 21.5904C123.96 21.623 122.98 21.5741 122 21.5579C122 21.509 122 21.4438 122 21.395C122.261 20.2548 122.261 19.1147 122 17.9745C122 17.9257 122 17.8605 122 17.8117C122.751 17.7954 123.519 17.7139 124.27 17.7954C126.932 18.0886 128.99 16.8344 130.901 15.2545C133.563 13.0719 136.486 11.6223 140.046 11.9644C140.128 11.8504 140.079 11.8015 139.965 11.7689C139.475 11.2803 139.018 10.7591 138.479 10.303C138.021 9.91211 137.94 9.52121 138.152 9C138.266 9 138.364 9 138.479 9C139.409 9.2606 140.324 9.2606 141.255 9C141.304 9 141.369 9 141.418 9C143.051 10.1727 144.325 11.7363 145.762 13.1208C146.334 13.6746 146.334 14.1632 145.762 14.7496C144.636 15.8897 143.509 17.0299 142.365 18.1537C141.941 18.5772 141.435 18.7889 140.814 18.7564C140.128 18.7401 139.458 18.7401 138.773 18.7401C138.462 18.7401 138.152 18.7238 138.005 18.398C137.858 18.0397 138.152 17.8442 138.348 17.6488C138.903 17.095 139.458 16.5575 140.112 15.906C138.446 15.7268 136.992 15.8409 135.621 16.6552C134.232 17.4696 133.007 18.512 131.685 19.4242C131.374 19.6359 131.423 19.7499 131.701 19.9454C132.958 20.8086 134.167 21.6882 135.392 22.5351C136.78 23.4798 138.348 23.659 140.193 23.4472C139.491 22.7794 138.903 22.2094 138.315 21.6393C138.119 21.4438 137.891 21.2484 138.054 20.9389C138.185 20.662 138.462 20.6132 138.74 20.6132C139.475 20.6132 140.21 20.6132 140.945 20.6294C141.516 20.6457 141.99 20.8575 142.398 21.2647C143.509 22.3885 144.636 23.4961 145.73 24.6037C146.334 25.2226 146.35 25.6786 145.762 26.2813C144.652 27.4052 143.541 28.5127 142.431 29.6366C142.006 30.0601 141.5 30.2881 140.896 30.2881C140.128 30.2881 139.377 30.2555 138.609 30.2392C138.381 30.2392 138.168 30.1904 138.054 29.9786C137.907 29.718 138.054 29.5063 138.234 29.3271C138.805 28.757 139.393 28.187 139.965 27.6006C140.095 27.568 140.144 27.5192 140.063 27.4052Z" fill="#E9A520"/>
<path d="M225.216 36.3797C225.216 35.8422 225.248 35.2884 225.199 34.7509C225.15 34.1157 225.346 33.8877 226.016 33.9203C227.584 33.9691 229.168 33.9203 230.703 33.6108C232.45 33.2525 233.675 31.7051 233.692 29.9298C233.724 26.2976 233.692 22.6491 233.708 19.017C233.708 18.6586 233.741 18.284 233.202 18.3166C231.65 18.398 230.115 18.2514 228.563 18.4469C225.967 18.7889 224.742 21.5741 225.134 23.8381C225.689 27.112 229.298 28.1218 232.058 26.6071C232.695 26.265 232.744 26.3953 232.744 27.0142C232.744 28.9362 232.205 29.5226 229.935 29.7017C226.669 29.946 223.501 28.073 222.717 24.6688C221.819 20.776 223.844 17.1602 227.943 16.1015C228.221 16.0363 228.531 16.0363 228.841 16.0363C231.34 16.0363 233.855 16.0363 236.354 16.0363C236.354 20.7597 236.354 25.4832 236.354 30.2066C236.305 30.2718 236.223 30.337 236.223 30.4021C235.88 33.3339 234.067 34.9627 231.422 35.9074C230.785 36.1354 230.099 36.0865 229.494 36.396C228.041 36.3797 226.636 36.3797 225.216 36.3797Z" fill="#CED2EA"/>
<path d="M122 17.9746C122.261 19.1147 122.261 20.2548 122 21.395C122 20.2548 122 19.1147 122 17.9746Z" fill="#EBAC32"/>
<path d="M141.271 9.01628C140.34 9.27689 139.426 9.27689 138.495 9.01628C139.426 9.01628 140.34 9.01628 141.271 9.01628Z" fill="#EFC36C"/>
<path d="M195.394 15.906C194.316 17.7628 193.32 19.5056 192.291 21.2158C192.013 21.6882 191.981 21.8999 192.569 22.1279C194.218 22.7794 194.986 24.1476 195.296 25.809C195.508 26.9328 195.443 28.073 195.459 29.2131C195.459 29.5714 195.345 29.718 194.986 29.6854C194.937 29.6854 194.871 29.6854 194.822 29.6854C192.895 29.7506 192.846 29.7506 192.895 27.8286C192.993 24.2128 190.25 23.3007 187.637 23.5938C187.163 23.6427 187.163 23.9033 187.163 24.2616C187.163 25.8415 187.147 27.4052 187.179 28.9851C187.196 29.5551 187.016 29.718 186.444 29.7017C184.648 29.6854 184.648 29.718 184.648 27.9427C184.648 22.0791 184.664 16.2318 184.632 10.3682C184.632 9.73296 184.779 9.53751 185.432 9.53751C187.147 9.57008 187.147 9.53751 187.147 11.2314C187.147 14.3261 187.163 17.4208 187.13 20.4992C187.13 21.0692 187.228 21.2158 187.898 21.3298C189.417 21.5904 189.988 20.7923 190.527 19.6359C191.05 18.5283 191.703 17.5022 192.258 16.4109C192.454 16.02 192.716 15.8572 193.157 15.8897C193.875 15.9386 194.561 15.906 195.394 15.906Z" fill="#15A9E0"/>
<path d="M171.681 22.8609C171.664 26.9165 168.578 30.0275 164.576 30.0112C160.624 29.9786 157.587 26.8025 157.603 22.7306C157.619 18.7075 160.706 15.5965 164.658 15.6291C168.61 15.6454 171.697 18.8215 171.681 22.8609ZM169.084 22.8772C169.1 20.434 167.81 18.5935 165.769 18.17C163.515 17.6977 161.522 18.6261 160.657 20.548C159.677 22.7143 160.265 25.4832 161.996 26.7699C162.421 27.0794 162.878 27.2911 163.384 27.4214C166.536 28.2195 169.068 26.1999 169.084 22.8772Z" fill="#16A9E0"/>
<path d="M212.771 15.6943C216.707 15.5151 219.908 18.9355 219.859 22.8609C219.81 26.7699 216.919 30.0275 212.771 29.9949C208.77 29.9786 205.797 26.8514 205.781 22.7631C205.765 18.7401 208.966 15.4988 212.771 15.6943ZM212.82 18.1374C210.092 17.9094 208.361 20.1571 208.394 22.7957C208.427 25.6624 210.158 27.5517 212.787 27.5843C215.547 27.6169 217.262 25.3529 217.262 22.8771C217.246 20.1408 215.498 17.9094 212.82 18.1374Z" fill="#CED2EA"/>
<path d="M147.918 18.3329C148.294 17.5511 148.588 16.9158 148.898 16.2969C148.947 16.1829 149.061 15.9874 149.127 15.9874C150.074 16.02 149.878 15.3196 149.96 14.7659C150.335 12.0947 152.622 10.0098 155.545 9.66779C156.933 9.50492 156.868 9.50492 156.95 10.9057C156.999 11.7852 156.737 12.0458 155.872 12.111C153.814 12.2738 152.605 13.5117 152.491 15.3196C152.458 15.792 152.605 15.9386 153.063 15.9223C153.798 15.8897 154.533 15.9223 155.267 15.906C155.659 15.8897 155.757 16.0363 155.774 16.4272C155.855 18.3329 155.872 18.3329 153.961 18.3329C152.475 18.3329 152.475 18.3329 152.475 19.8313C152.475 22.812 152.458 25.8089 152.491 28.7896C152.507 29.4737 152.377 29.7343 151.625 29.718C149.862 29.6529 149.862 29.7017 149.862 27.9101C149.862 25.0271 149.829 22.1605 149.878 19.2776C149.894 18.5283 149.698 18.2189 148.931 18.3329C148.637 18.3817 148.343 18.3329 147.918 18.3329Z" fill="#15A9E0"/>
<path d="M201.045 17.3556C201.045 19.587 201.061 21.8022 201.029 24.0336C201.029 24.5874 201.127 25.1086 201.241 25.6298C201.437 26.5582 202.368 27.2423 203.527 27.226C204.213 27.226 204.327 27.4866 204.327 28.0893C204.311 29.7506 204.327 29.7017 202.694 29.5552C200.016 29.3108 198.742 27.7961 198.579 25.1575C198.285 20.206 198.546 15.2382 198.432 10.2867C198.415 9.74925 198.595 9.52122 199.183 9.50493C200.996 9.45607 201.061 9.50493 201.061 11.264C201.045 13.2837 201.045 15.3197 201.045 17.3556Z" fill="#CED2EA"/>
<path d="M174.31 24.7828C174.359 23.4472 174.228 21.851 174.408 20.2385C174.718 17.5348 176.025 16.1992 178.752 15.9711C179.944 15.8734 181.137 15.9223 182.345 15.8897C182.737 15.8734 182.851 16.0363 182.868 16.4109C182.982 18.3492 182.998 18.3329 181.071 18.3492C180.336 18.3492 179.601 18.3329 178.867 18.398C177.772 18.512 177.233 19.0495 177.005 20.1245C176.874 20.7923 176.858 21.4764 176.858 22.1442C176.858 24.4245 176.841 26.7048 176.874 28.9851C176.874 29.5063 176.76 29.6854 176.204 29.6854C174.294 29.6854 174.294 29.718 174.294 27.7798C174.31 26.8839 174.31 25.9555 174.31 24.7828Z" fill="#19AAE0"/>
<path d="M140.063 27.4052C140.145 27.5194 140.096 27.5684 139.981 27.6011C139.997 27.5358 140.03 27.4705 140.063 27.4052Z" fill="#F2CC82"/>
<path d="M140.063 11.9648C140.03 11.8995 140.014 11.8342 139.981 11.7689C140.096 11.8016 140.145 11.8669 140.063 11.9648Z" fill="#F2CC82"/>
<path d="M108 1L112 38" stroke="#C6CCF2"/>
</svg>
