<svg width="60" height="60" viewBox="0 0 60 60" fill="none" xmlns="http://www.w3.org/2000/svg">
<circle cx="30" cy="30" r="28.5" fill="white" stroke="url(#paint0_linear)" stroke-width="3"/>
<path d="M44.1667 34.6667C44.6269 35.1269 44.6269 35.8731 44.1667 36.3333C43.7064 36.7936 42.9602 36.7936 42.5 36.3333L29.1667 23C28.7064 22.5398 28.7064 21.7936 29.1667 21.3333C29.6269 20.8731 30.3731 20.8731 30.8333 21.3333L44.1667 34.6667Z" fill="url(#paint1_linear)"/>
<path d="M17.5 36.3333C17.0398 36.7936 16.2936 36.7936 15.8333 36.3333C15.3731 35.8731 15.3731 35.1269 15.8333 34.6667L29.1667 21.3333C29.6269 20.8731 30.3731 20.8731 30.8333 21.3333C31.2936 21.7936 31.2936 22.5398 30.8333 23L17.5 36.3333Z" fill="url(#paint2_linear)"/>
<defs>
<linearGradient id="paint0_linear" x1="30" y1="0" x2="30" y2="60" gradientUnits="userSpaceOnUse">
<stop stop-color="#054DDD"/>
<stop offset="1" stop-color="#8704B3"/>
</linearGradient>
<linearGradient id="paint1_linear" x1="30.1744" y1="36.8953" x2="30.1744" y2="19.1047" gradientUnits="userSpaceOnUse">
<stop stop-color="#8704B3"/>
<stop offset="1" stop-color="#064BDC"/>
</linearGradient>
<linearGradient id="paint2_linear" x1="30.1744" y1="36.8953" x2="30.1744" y2="19.1047" gradientUnits="userSpaceOnUse">
<stop stop-color="#8704B3"/>
<stop offset="1" stop-color="#064BDC"/>
</linearGradient>
</defs>
</svg>
