<svg version="1" xmlns="http://www.w3.org/2000/svg" width="933.333" height="933.333" viewBox="0 0 700.000000 700.000000"><path d="M145.8 191.5c-.2.1-4.7.5-10.2.9-5.4.3-10.1.8-10.5 1-.3.2-2.8.7-5.6 1-17.3 2.3-38.2 9.8-56.1 20.2-5.9 3.4-7.1 4.5-8.3 7.6-1.4 3.6.5 7.7 10.7 23.7 5.1 7.8 9.2 14.5 9.2 14.8 0 .2 1.8 3.1 4 6.3 3.9 5.7 6.7 7.6 11 7.3.8-.1 5.9-2.2 11.2-4.8 15.1-7.2 28-10.5 43-11 23.2-.9 36.8 7.6 36.8 22.8 0 13.4-7.2 22.2-22.5 27.5-10.8 3.7-21 5.1-39 5.2-12.7.2-17.5 1.4-19.4 4.9-1.7 3-1.7 50.2 0 52.8 2.4 3.9 4.8 4.5 19.8 4.8 13.7.3 20.8.8 27.4 2 1.5.3 3.8.7 5.2.9 10.1 1.8 19.1 5.8 23.3 10.5 5 5.5 6.6 10 6.6 19.1 0 22.6-14.5 31.6-52.2 32.3-4 .1-16.8-1-21.7-1.9-7.6-1.3-18.5-3.6-23.2-5-2.9-.9-5.5-1.5-5.8-1.5-.2 0-2.6-.9-5.2-2-10.3-4.4-13.2-5.1-16.9-3.9-6.1 2-6.4 3.7-6.4 33.4 0 26.1 0 26.5 2.2 29 2.3 2.5 12.4 6.3 27.8 10.5 6.5 1.8 10.2 2.5 24 4.6 16.4 2.5 59.2 2.5 70.4 0 1.1-.3 3.9-.7 6.1-.9 10.7-1.2 29.7-7.3 41.5-13.4 31.5-16.2 47.7-42.8 47.2-77.2-.4-19.8-6-33.8-18.7-46.5-6.6-6.6-9.7-8.9-17.5-12.7-9.4-4.6-23.8-9.1-33.5-10.4-8.4-1.1-8.6-2-.7-4.3 8.2-2.5 25-10.7 30.2-14.7 7.1-5.6 17.6-17.2 21.3-23.5 6.6-11.3 9.9-24.3 9.8-38.9-.1-11-2.1-19.6-6.4-27.8-12.2-23.2-36.7-37.1-73.7-41.8-5-.6-34.6-1.4-35.2-.9zM524.6 191.7c-.1.2-2.5.5-5.2.8-15 1.7-33 8.5-44.9 16.9-13.3 9.6-25.1 25.4-32.5 43.9-3.8 9.4-8.4 25.7-9.5 33.7-.4 2.4-.8 4.7-1 5-.2.3-.6 3.7-1 7.5-.4 3.9-.9 7.8-1.1 8.8-2.3 12.4-2.3 66.8 0 81.8.5 2.8 1.8 11.5 2.2 14.4 1.2 9 7.7 32.2 11 39.5 9.8 21.6 19.2 34 33.7 44.7 11.6 8.5 28.4 15.3 42.7 17.1 6.7.9 34 .9 39.5 0 40.4-6.4 66.2-28.9 79.3-69.4 2.7-8.1 7.6-30.6 8.7-39.4 1.5-12.5 2-24.5 2-46.5 0-27.2-.8-38.7-3.5-54.7-.6-3.2-1.2-6.8-1.4-8-.2-1.3-.9-4.3-1.6-6.8-.7-2.5-1.4-5.5-1.6-6.7-.2-1.2-1.8-6.2-3.5-11-14.4-41.2-40.1-64.3-78.4-70.4-6.9-1.1-33.1-2-33.9-1.2zm21 67.9c12 5.7 17.9 23.9 19.9 60.9 1.1 19.1.5 63.5-1 74-.2 1.6-.7 5.7-1.1 9-2.6 23.5-11.2 36.8-24.1 37.2-13 .3-21-8.5-25.2-28.2-1.1-5-1.4-7.7-2.8-21.5-1.6-15.6-.8-83.1 1.1-93.5.2-1.1.6-4.3 1-7 2.9-21.1 11.4-32.4 24.4-32.5 2.4 0 5.9.7 7.8 1.6zM348.7 427.6c-.1.1-2.9.4-6.2.7-21.8 2.1-34.3 14.4-36.1 35.7-1.4 15 3.5 27 14.2 35.1 8.8 6.6 17.1 9 31.4 9 19.3-.1 32.9-8.3 39.1-23.6 3.2-7.9 3.4-24.2.4-32-5.6-14.8-16.7-22.6-34.7-24.3-4.3-.5-8-.7-8.1-.6z"/></svg>