<svg width="149" height="151" viewBox="0 0 149 151" fill="none" xmlns="http://www.w3.org/2000/svg"><path fill-rule="evenodd" clip-rule="evenodd" d="M75.35 60.371a7.063 7.063 0 001.514-4.389c0-3.856-3.049-6.983-6.81-6.983-3.762 0-6.812 3.127-6.812 6.983 0 1.663.567 3.19 1.514 4.39v-4.403c0-2.995 2.372-5.418 5.297-5.418 2.92 0 5.298 2.426 5.298 5.418v4.402zm3.783 32.077c6.27 0 11.353-5.564 11.353-11.638 0 0 0 3.59 0 0v-9.308c0-1.287-1.007-2.33-2.27-2.33-1.254 0-2.27 1.041-2.27 2.33v.773h-1.514v-3.87c0-1.29-1.008-2.337-2.27-2.337-1.254 0-2.27 1.042-2.27 2.338v2.317h-1.514v-3.869c0-1.29-1.008-2.337-2.27-2.337-1.254 0-2.27 1.042-2.27 2.337v5.421h-1.514V55.99c0-1.29-1.008-2.336-2.27-2.336-1.255 0-2.27 1.036-2.27 2.336v17.527c-3.116-3.415-7.218-7.17-8.9-5.438-1.645 1.696 2.596 6.37 8.517 16.584 2.668 4.602 6.043 7.784 11.732 7.785zM92 80.81C92 88.094 86.24 94 79.135 94c-4.712 0-9.684-2.254-13.106-8.647-4.94-9.226-11.257-15.276-8.249-18.36 2.152-2.206 5.53-.09 8.49 2.748V55.995c0-2.161 1.694-3.892 3.783-3.892 2.105 0 3.784 1.742 3.784 3.892v7.743a3.712 3.712 0 012.27-.773c1.639 0 3.02 1.051 3.551 2.526a3.714 3.714 0 012.504-.974c2.104 0 3.784 1.735 3.784 3.875v.021a3.715 3.715 0 012.27-.77c2.104 0 3.784 1.736 3.784 3.879v9.288z" fill="#fff"/><g filter="url(#filter0_d)"><mask id="a" fill="#fff"><path d="M121.899 98.9a52.996 52.996 0 01-56.918 25.341l.44-2.074a50.882 50.882 0 0054.642-24.328l1.836 1.06z"/></mask><path d="M121.899 98.9a52.996 52.996 0 01-56.918 25.341l.44-2.074a50.882 50.882 0 0054.642-24.328l1.836 1.06z" stroke="#fff" stroke-width="4" mask="url(#a)"/></g><g filter="url(#filter1_d)"><mask id="b" fill="#fff"><path d="M76 19.4a52.997 52.997 0 0150.406 36.621l-2.016.656A50.884 50.884 0 0076 21.519V19.4z"/></mask><path d="M76 19.4a52.997 52.997 0 0150.406 36.621l-2.016.656A50.884 50.884 0 0076 21.519V19.4z" stroke="#fff" stroke-width="4" mask="url(#b)"/></g><g filter="url(#filter2_d)"><mask id="c" fill="#fff"><path d="M30.1 98.9a53 53 0 016.513-61.965l1.576 1.419a50.88 50.88 0 00-6.252 59.485L30.1 98.9z"/></mask><path d="M30.1 98.9a53 53 0 016.513-61.965l1.576 1.419a50.88 50.88 0 00-6.252 59.485L30.1 98.9z" stroke="#fff" stroke-width="4" mask="url(#c)"/></g><circle cx="76" cy="72.399" r="39" stroke="#fff" stroke-width="2"/><defs><filter id="filter0_d" x="60.413" y="80.261" width="65.486" height="70.291" filterUnits="userSpaceOnUse" color-interpolation-filters="sRGB"><feFlood flood-opacity="0" result="BackgroundImageFix"/><feColorMatrix in="SourceAlpha" values="0 0 0 0 0 0 0 0 0 0 0 0 0 0 0 0 0 0 127 0"/><feOffset dy="4"/><feGaussianBlur stdDeviation="2"/><feColorMatrix values="0 0 0 0 0 0 0 0 0 0 0 0 0 0 0 0 0 0 0.25 0"/><feBlend in2="BackgroundImageFix" result="effect1_dropShadow"/><feBlend in="SourceGraphic" in2="effect1_dropShadow" result="shape"/></filter><filter id="filter1_d" x="72" y="19.399" width="58.406" height="45.277" filterUnits="userSpaceOnUse" color-interpolation-filters="sRGB"><feFlood flood-opacity="0" result="BackgroundImageFix"/><feColorMatrix in="SourceAlpha" values="0 0 0 0 0 0 0 0 0 0 0 0 0 0 0 0 0 0 127 0"/><feOffset dy="4"/><feGaussianBlur stdDeviation="2"/><feColorMatrix values="0 0 0 0 0 0 0 0 0 0 0 0 0 0 0 0 0 0 0.25 0"/><feBlend in2="BackgroundImageFix" result="effect1_dropShadow"/><feBlend in="SourceGraphic" in2="effect1_dropShadow" result="shape"/></filter><filter id="filter2_d" x=".898" y="36.608" width="65.486" height="70.291" filterUnits="userSpaceOnUse" color-interpolation-filters="sRGB"><feFlood flood-opacity="0" result="BackgroundImageFix"/><feColorMatrix in="SourceAlpha" values="0 0 0 0 0 0 0 0 0 0 0 0 0 0 0 0 0 0 127 0"/><feOffset dy="4"/><feGaussianBlur stdDeviation="2"/><feColorMatrix values="0 0 0 0 0 0 0 0 0 0 0 0 0 0 0 0 0 0 0.25 0"/><feBlend in2="BackgroundImageFix" result="effect1_dropShadow"/><feBlend in="SourceGraphic" in2="effect1_dropShadow" result="shape"/></filter></defs></svg>