<svg width="98" height="21" viewBox="0 0 98 21" fill="none" xmlns="http://www.w3.org/2000/svg"><path d="M92.895 0L87.79 5.105l5.105 5.105L98 5.105 92.895 0z" fill="#05F"/><path d="M22.809 5.1h-2.865l-.303.28-2.957 10.13-.015.009-3.317-10.15-.297-.268h-3.013l-.298.267-3.295 10.08-.054-.03-.015-.013L3.425 5.378 3.123 5.1H.198L0 5.37l4.602 14.27.325.289h2.901l.326-.289 3.29-10.208h.061l3.311 10.21.326.287h2.938l.325-.289 4.602-14.27-.198-.27zM55.386 5.1h-2.9l-.319.266-4.055 10.559-.034.026-4.01-10.583-.32-.267h-2.957l-.178.265 5.774 14.287.34.277h2.665l.34-.276 5.832-14.286-.178-.267zM59.584 10.672c.479-1.746 1.94-3.041 3.866-3.041 2.543 0 3.599 1.798 3.898 3.04h-7.764zm10.727 2.646l.277-.271v-.427c0-2.313-.655-4.304-1.948-5.702-1.293-1.398-3.032-2.102-5.19-2.102-2.077 0-3.806.767-5.142 2.278a7.922 7.922 0 00-2.003 5.406c0 2.203.694 4.052 2.059 5.498 1.364 1.447 3.181 2.186 5.369 2.186 1.577 0 2.93-.374 4.021-1.141 1.091-.768 2.235-1.988 2.62-3.68l-.213-.28H67.48l-.374.275c-.68 1.36-1.716 2.004-3.415 2.004a4.175 4.175 0 01-2.948-1.175c-.787-.738-1.24-1.62-1.349-2.87l10.918.001zM34.39 16.061a3.988 3.988 0 01-3.023 1.31c-1.174 0-2.027-.438-2.871-1.326-.844-.89-1.265-2.076-1.265-3.556s.425-2.661 1.265-3.556c.84-.894 1.697-1.328 2.87-1.328a3.995 3.995 0 013.025 1.31 4.46 4.46 0 011.1 2.131v2.886a4.442 4.442 0 01-1.1 2.131v-.002zm1.526-10.959l-.275.277v1.477l-.047.056a5.132 5.132 0 00-1.497-1.278 5.698 5.698 0 00-.432-.23 6.21 6.21 0 00-2.732-.593c-1.872 0-3.498.748-4.855 2.217-1.357 1.47-2.032 3.303-2.032 5.474 0 2.17.681 4.005 2.032 5.474 1.351 1.469 2.983 2.216 4.855 2.216a6.215 6.215 0 002.715-.584c.16-.077.314-.16.462-.247a5.098 5.098 0 001.441-1.228c.013-.013.073 0 .086 0v1.525l.275.277h2.469l.277-.277V5.378L38.38 5.1l-2.465.001zM80.75 11.353s-1.615-.339-2.952-.65c-1.23-.284-1.835-.638-1.835-1.513 0-.927.885-1.685 2.782-1.685 1.857 0 2.89.837 2.89 1.557l.323.285h2.703l.215-.27c0-1.93-1.684-4.257-6.062-4.257-4.575 0-6.007 2.682-6.007 4.413 0 1.45.522 3.166 4.03 3.978l3.009.676c1.521.348 2.16.859 2.16 1.755 0 .81-.81 1.78-2.916 1.78-1.964 0-3.144-.936-3.199-2.059l-.34-.277h-2.764l-.214.281c.253 2.485 2.093 4.819 6.498 4.819 4.985 0 6.003-3.043 6.003-4.641 0-2.111-1.22-3.515-4.324-4.19" fill="#000"/></svg>