<svg width="237" height="39" viewBox="0 0 237 39" fill="none" xmlns="http://www.w3.org/2000/svg"><path d="M92.895 9l-5.105 5.105 5.105 5.105L98 14.105 92.895 9z" fill="#05F"/><path d="M22.809 14.1h-2.865l-.303.28-2.957 10.13-.015.009-3.317-10.15-.297-.268h-3.013l-.298.267-3.295 10.08-.054-.03-.015-.013-2.955-10.028-.302-.276H.198L0 14.37l4.602 14.27.325.289h2.901l.326-.289 3.29-10.208h.061l3.311 10.21.326.287h2.938l.325-.289 4.602-14.27-.198-.27zM55.386 14.1h-2.9l-.319.266-4.055 10.559-.034.026-4.01-10.583-.32-.267h-2.957l-.178.265 5.774 14.287.34.277h2.665l.34-.276 5.832-14.286-.178-.267zM59.584 19.672c.479-1.746 1.94-3.041 3.866-3.041 2.543 0 3.599 1.798 3.898 3.04h-7.764zm10.727 2.646l.277-.271v-.427c0-2.313-.655-4.304-1.948-5.702-1.293-1.398-3.032-2.102-5.19-2.102-2.077 0-3.806.767-5.142 2.278a7.922 7.922 0 00-2.003 5.406c0 2.203.694 4.052 2.059 5.498 1.364 1.447 3.181 2.186 5.369 2.186 1.577 0 2.93-.374 4.021-1.141 1.091-.768 2.235-1.988 2.62-3.68l-.213-.28H67.48l-.374.275c-.68 1.36-1.716 2.004-3.415 2.004a4.175 4.175 0 01-2.948-1.175c-.787-.738-1.24-1.62-1.349-2.87l10.918.001zM34.39 25.061a3.988 3.988 0 01-3.023 1.31c-1.174 0-2.027-.438-2.871-1.326-.844-.89-1.265-2.076-1.265-3.556s.425-2.661 1.265-3.556c.84-.894 1.697-1.328 2.87-1.328a3.995 3.995 0 013.025 1.31 4.46 4.46 0 011.1 2.131v2.886a4.442 4.442 0 01-1.1 2.131v-.002zm1.526-10.959l-.275.277v1.477l-.047.056a5.132 5.132 0 00-1.497-1.278 5.705 5.705 0 00-.432-.23 6.21 6.21 0 00-2.732-.594c-1.872 0-3.498.75-4.855 2.218-1.357 1.47-2.032 3.303-2.032 5.474 0 2.17.681 4.005 2.032 5.474 1.351 1.469 2.983 2.216 4.855 2.216a6.215 6.215 0 002.715-.584c.16-.077.314-.16.462-.247a5.098 5.098 0 001.441-1.228c.013-.013.073 0 .086 0v1.525l.275.277h2.469l.277-.277v-14.28l-.277-.277-2.465.001zM80.75 20.353s-1.615-.339-2.952-.65c-1.23-.284-1.835-.638-1.835-1.513 0-.927.885-1.685 2.782-1.685 1.857 0 2.89.837 2.89 1.557l.323.285h2.703l.215-.27c0-1.93-1.684-4.257-6.062-4.257-4.575 0-6.007 2.682-6.007 4.413 0 1.45.522 3.166 4.03 3.978l3.009.676c1.521.348 2.16.859 2.16 1.755 0 .81-.81 1.78-2.916 1.78-1.964 0-3.144-.936-3.199-2.059l-.34-.277h-2.764l-.214.281c.253 2.485 2.093 4.819 6.498 4.819 4.985 0 6.003-3.043 6.003-4.641 0-2.111-1.22-3.515-4.324-4.19" fill="#000"/><path d="M140.063 27.405c-1.209-.065-2.434.049-3.642-.244-1.617-.407-3.005-1.238-4.328-2.183-1.013-.733-2.009-1.482-3.038-2.182-1.241-.863-2.613-1.27-4.132-1.206-.963.033-1.943-.016-2.923-.032v-.163a7.569 7.569 0 000-3.42v-.163c.751-.017 1.519-.098 2.27-.017 2.662.294 4.72-.96 6.631-2.54 2.662-2.183 5.585-3.633 9.145-3.29.082-.115.033-.163-.081-.196-.49-.489-.947-1.01-1.486-1.466-.458-.39-.539-.782-.327-1.303h.327c.93.26 1.845.26 2.776 0h.163c1.633 1.173 2.907 2.736 4.344 4.12.572.555.572 1.043 0 1.63a317.843 317.843 0 01-3.397 3.404c-.424.423-.93.635-1.551.602-.686-.016-1.356-.016-2.041-.016-.311 0-.621-.016-.768-.342-.147-.358.147-.554.343-.75.555-.553 1.11-1.09 1.764-1.742-1.666-.18-3.12-.065-4.491.75-1.389.814-2.614 1.856-3.936 2.768-.311.212-.262.326.016.521 1.257.864 2.466 1.743 3.691 2.59 1.388.945 2.956 1.124 4.801.912-.702-.668-1.29-1.238-1.878-1.808-.196-.195-.424-.39-.261-.7.131-.277.408-.326.686-.326.735 0 1.47 0 2.205.016a2.059 2.059 0 011.453.636c1.111 1.123 2.238 2.231 3.332 3.339.604.619.62 1.075.032 1.677-1.11 1.124-2.221 2.232-3.331 3.356-.425.423-.931.651-1.535.651-.768 0-1.519-.032-2.287-.049-.228 0-.441-.049-.555-.26-.147-.261 0-.473.18-.652.571-.57 1.159-1.14 1.731-1.726.13-.033.179-.082.098-.196z" fill="#E9A520"/><path d="M225.216 36.38c0-.538.032-1.092-.017-1.63-.049-.634.147-.862.817-.83 1.568.05 3.152 0 4.687-.31 1.747-.358 2.972-1.905 2.989-3.68.032-3.632 0-7.28.016-10.913 0-.358.033-.733-.506-.7-1.552.081-3.087-.066-4.639.13-2.596.342-3.821 3.127-3.429 5.391.555 3.274 4.164 4.284 6.924 2.77.637-.343.686-.213.686.406 0 1.922-.539 2.509-2.809 2.688-3.266.244-6.434-1.629-7.218-5.033-.898-3.893 1.127-7.509 5.226-8.567.278-.066.588-.066.898-.066h7.513v14.17c-.049.066-.131.131-.131.196-.343 2.932-2.156 4.56-4.801 5.505-.637.228-1.323.18-1.928.489-1.453-.016-2.858-.016-4.278-.016z" fill="#CED2EA"/><path d="M122 17.975a7.569 7.569 0 010 3.42v-3.42z" fill="#EBAC32"/><path d="M141.271 9.016c-.931.26-1.845.26-2.776 0h2.776z" fill="#EFC36C"/><path d="M195.394 15.906c-1.078 1.857-2.074 3.6-3.103 5.31-.278.472-.31.684.278.912 1.649.651 2.417 2.02 2.727 3.681.212 1.124.147 2.264.163 3.404 0 .358-.114.505-.473.472h-.164c-1.927.066-1.976.066-1.927-1.856.098-3.616-2.645-4.528-5.258-4.235-.474.049-.474.31-.474.668 0 1.58-.016 3.143.016 4.723.017.57-.163.733-.735.717-1.796-.017-1.796.016-1.796-1.76 0-5.863.016-11.71-.016-17.574 0-.635.147-.83.8-.83 1.715.032 1.715 0 1.715 1.693 0 3.095.016 6.19-.017 9.268 0 .57.098.717.768.83 1.519.261 2.09-.537 2.629-1.693.523-1.108 1.176-2.134 1.731-3.225.196-.391.458-.554.899-.521.718.049 1.404.016 2.237.016z" fill="#15A9E0"/><path d="M171.681 22.86c-.017 4.056-3.103 7.168-7.105 7.151-3.952-.032-6.989-3.209-6.973-7.28.016-4.024 3.103-7.135 7.055-7.102 3.952.016 7.039 3.193 7.023 7.232zm-2.597.017c.016-2.443-1.274-4.284-3.315-4.707-2.254-.472-4.247.456-5.112 2.378-.98 2.166-.392 4.935 1.339 6.222.425.31.882.521 1.388.651 3.152.799 5.684-1.221 5.7-4.544z" fill="#16A9E0"/><path d="M212.771 15.694c3.936-.179 7.137 3.242 7.088 7.167-.049 3.909-2.94 7.166-7.088 7.134-4.001-.016-6.974-3.144-6.99-7.232-.016-4.023 3.185-7.264 6.99-7.069zm.049 2.443c-2.728-.228-4.459 2.02-4.426 4.659.033 2.866 1.764 4.756 4.393 4.788 2.76.033 4.475-2.231 4.475-4.707-.016-2.736-1.764-4.968-4.442-4.74z" fill="#CED2EA"/><path d="M147.918 18.333c.376-.782.67-1.417.98-2.036.049-.114.163-.31.229-.31.947.033.751-.667.833-1.221.375-2.671 2.662-4.756 5.585-5.098 1.388-.163 1.323-.163 1.405 1.238.049.88-.213 1.14-1.078 1.205-2.058.163-3.267 1.4-3.381 3.209-.033.472.114.619.572.602.735-.032 1.47 0 2.204-.016.392-.016.49.13.507.521.081 1.906.098 1.906-1.813 1.906-1.486 0-1.486 0-1.486 1.498 0 2.981-.017 5.978.016 8.959.016.684-.114.944-.866.928-1.763-.065-1.763-.016-1.763-1.808 0-2.883-.033-5.75.016-8.632.016-.75-.18-1.06-.947-.945-.294.049-.588 0-1.013 0z" fill="#15A9E0"/><path d="M201.045 17.356c0 2.231.016 4.446-.016 6.678 0 .553.098 1.075.212 1.596.196.928 1.127 1.612 2.286 1.596.686 0 .8.26.8.863-.016 1.662 0 1.613-1.633 1.466-2.678-.244-3.952-1.759-4.115-4.398-.294-4.951-.033-9.919-.147-14.87-.017-.538.163-.766.751-.782 1.813-.049 1.878 0 1.878 1.759-.016 2.02-.016 4.056-.016 6.092z" fill="#CED2EA"/><path d="M174.31 24.783c.049-1.336-.082-2.932.098-4.545.31-2.703 1.617-4.039 4.344-4.267 1.192-.098 2.385-.049 3.593-.081.392-.017.506.146.523.52.114 1.94.13 1.923-1.797 1.94-.735 0-1.47-.017-2.204.048-1.095.114-1.634.651-1.862 1.727-.131.667-.147 1.351-.147 2.02 0 2.28-.017 4.56.016 6.84 0 .521-.114.7-.67.7-1.91 0-1.91.033-1.91-1.905.016-.896.016-1.825.016-2.997z" fill="#19AAE0"/><path d="M140.063 27.405c.082.114.033.163-.082.196.016-.065.049-.13.082-.196zM140.063 11.965c-.033-.066-.049-.13-.082-.196.115.033.164.098.082.196z" fill="#F2CC82"/><path d="M108 1l4 37" stroke="#C6CCF2"/></svg>