<svg width="115" height="28" viewBox="0 0 115 28" fill="none" xmlns="http://www.w3.org/2000/svg"><path d="M18.063 18.405c-1.209-.065-2.434.049-3.642-.244-1.617-.407-3.005-1.238-4.328-2.183-1.013-.733-2.009-1.482-3.038-2.182-1.241-.864-2.613-1.27-4.132-1.206-.963.033-1.943-.016-2.923-.032v-.163a7.56 7.56 0 000-3.42v-.163c.751-.017 1.519-.098 2.27-.017 2.662.294 4.72-.96 6.63-2.54 2.663-2.183 5.586-3.633 9.146-3.29.082-.115.033-.164-.081-.196-.49-.489-.948-1.01-1.486-1.466-.458-.39-.54-.782-.327-1.303h.327c.93.26 1.845.26 2.776 0h.163c1.633 1.173 2.907 2.736 4.344 4.12.572.555.572 1.043 0 1.63a333.405 333.405 0 01-3.396 3.404c-.425.423-.931.635-1.552.602-.686-.016-1.355-.016-2.041-.016-.31 0-.621-.016-.768-.342-.147-.358.147-.554.343-.75.555-.553 1.11-1.09 1.764-1.742-1.666-.18-3.12-.065-4.491.75-1.389.814-2.614 1.856-3.936 2.768-.31.212-.262.326.016.521 1.258.864 2.466 1.743 3.69 2.59 1.39.945 2.957 1.124 4.802.912-.702-.668-1.29-1.238-1.878-1.808-.196-.195-.424-.39-.261-.7.13-.277.408-.326.686-.326.735 0 1.47 0 2.205.016a2.06 2.06 0 011.453.636c1.11 1.123 2.238 2.231 3.332 3.339.604.619.62 1.075.032 1.677-1.11 1.124-2.22 2.232-3.331 3.356-.425.423-.931.651-1.535.651-.768 0-1.52-.032-2.287-.049-.228 0-.44-.049-.555-.26-.147-.261 0-.473.18-.652.571-.57 1.16-1.14 1.73-1.726.131-.033.18-.082.099-.196z" fill="#E9A520"/><path d="M103.216 27.38c0-.538.032-1.092-.017-1.63-.049-.634.147-.862.817-.83 1.568.05 3.152 0 4.687-.31 1.747-.357 2.972-1.905 2.989-3.68.032-3.632 0-7.28.016-10.913 0-.358.033-.733-.506-.7-1.552.081-3.087-.066-4.639.13-2.596.342-3.821 3.127-3.429 5.391.555 3.274 4.164 4.284 6.924 2.77.637-.343.686-.213.686.406 0 1.922-.539 2.509-2.809 2.688-3.266.244-6.434-1.629-7.218-5.033-.898-3.893 1.127-7.509 5.226-8.568.278-.065.588-.065.898-.065h7.513v14.17c-.049.066-.131.131-.131.196-.343 2.932-2.156 4.56-4.801 5.505-.637.228-1.323.18-1.928.489-1.453-.016-2.858-.016-4.278-.016z" fill="#CED2EA"/><path d="M0 8.975a7.56 7.56 0 010 3.42v-3.42z" fill="#EBAC32"/><path d="M19.271.016c-.93.26-1.845.26-2.776 0h2.776z" fill="#EFC36C"/><path d="M73.394 6.906c-1.078 1.857-2.074 3.6-3.103 5.31-.278.472-.31.684.278.912 1.65.651 2.417 2.02 2.727 3.681.212 1.124.147 2.264.163 3.404 0 .358-.114.505-.473.472h-.163c-1.928.066-1.977.066-1.928-1.856.098-3.616-2.645-4.528-5.258-4.235-.474.049-.474.31-.474.668 0 1.58-.016 3.143.016 4.723.017.57-.163.733-.735.717-1.796-.017-1.796.016-1.796-1.76 0-5.863.016-11.71-.016-17.574 0-.635.147-.83.8-.83 1.715.032 1.715 0 1.715 1.693 0 3.095.016 6.19-.017 9.268 0 .57.098.717.768.83 1.519.261 2.09-.537 2.63-1.693.522-1.108 1.175-2.134 1.73-3.225.196-.391.458-.554.899-.521.718.049 1.404.016 2.237.016z" fill="#15A9E0"/><path d="M49.68 13.86c-.016 4.056-3.102 7.168-7.104 7.151-3.952-.032-6.99-3.209-6.973-7.28.016-4.024 3.103-7.134 7.055-7.102 3.952.016 7.039 3.193 7.023 7.232zm-2.596.017c.016-2.443-1.274-4.284-3.315-4.707-2.254-.472-4.247.456-5.112 2.378-.98 2.166-.392 4.935 1.339 6.222.425.31.882.521 1.388.651 3.152.799 5.684-1.221 5.7-4.544z" fill="#16A9E0"/><path d="M90.77 6.694c3.937-.179 7.138 3.242 7.089 7.167-.05 3.909-2.94 7.166-7.088 7.134-4.001-.016-6.974-3.144-6.99-7.232-.016-4.023 3.185-7.264 6.99-7.069zm.05 2.443c-2.727-.228-4.459 2.02-4.426 4.659.033 2.866 1.764 4.756 4.393 4.788 2.76.033 4.475-2.231 4.475-4.707-.016-2.736-1.764-4.968-4.442-4.74z" fill="#CED2EA"/><path d="M25.918 9.333c.376-.782.67-1.417.98-2.036.05-.114.163-.31.229-.31.947.033.751-.667.833-1.221.375-2.671 2.662-4.756 5.585-5.098 1.388-.163 1.323-.163 1.405 1.238.049.88-.213 1.14-1.078 1.205-2.058.163-3.267 1.4-3.38 3.209-.034.472.113.619.57.602.736-.032 1.47 0 2.205-.016.392-.016.49.13.507.521.081 1.906.098 1.906-1.813 1.906-1.486 0-1.486 0-1.486 1.498 0 2.981-.017 5.978.016 8.959.016.684-.114.944-.866.928-1.763-.065-1.763-.016-1.763-1.808 0-2.883-.033-5.75.016-8.632.016-.75-.18-1.06-.947-.945-.294.049-.588 0-1.013 0z" fill="#15A9E0"/><path d="M79.045 8.356c0 2.231.016 4.446-.017 6.678 0 .553.098 1.075.213 1.596.196.928 1.127 1.612 2.286 1.596.686 0 .8.26.8.863-.016 1.662 0 1.613-1.633 1.466-2.678-.244-3.952-1.759-4.115-4.398-.294-4.951-.033-9.919-.147-14.87-.017-.538.163-.766.751-.782 1.813-.049 1.878 0 1.878 1.759-.016 2.02-.016 4.056-.016 6.092z" fill="#CED2EA"/><path d="M52.31 15.783c.049-1.336-.082-2.932.098-4.544.31-2.704 1.617-4.04 4.344-4.268 1.192-.098 2.385-.049 3.593-.081.392-.017.506.146.523.52.114 1.94.13 1.923-1.797 1.94-.735 0-1.47-.017-2.204.048-1.095.114-1.634.652-1.862 1.726-.13.668-.147 1.352-.147 2.02 0 2.28-.017 4.56.016 6.841 0 .521-.114.7-.67.7-1.91 0-1.91.033-1.91-1.905.016-.896.016-1.825.016-2.997z" fill="#19AAE0"/><path d="M18.063 18.405c.082.114.033.163-.082.196.016-.065.05-.13.082-.196zM18.063 2.965c-.033-.065-.05-.13-.082-.196.115.033.164.098.082.196z" fill="#F2CC82"/></svg>