<svg xmlns="http://www.w3.org/2000/svg" viewBox="0 0 235.98 76.2"><defs><style>.a{fill:#d558ff}.b{fill:#ffc90c}.c{fill:#fff}</style></defs><path class="a" d="M1.53 64.89a1.76 1.76 0 01-.6-3.3l6.6-3.5a1.68 1.68 0 00.9-1.9l-1.3-7.4a1.79 1.79 0 013-1.6l5.4 5.2a1.83 1.83 0 002.1.3l6.6-3.5a1.78 1.78 0 012.4 2.4l-3.3 6.7a1.86 1.86 0 00.4 2.1l5.4 5.2a1.76 1.76 0 01-1.5 3l-7.4-1.1a1.89 1.89 0 00-1.9 1L15 75.19a1.81 1.81 0 01-3.4-.5l-1.3-7.4a1.7 1.7 0 00-1.5-1.5z"/><path class="b" d="M64.93 67.69a.8.8 0 01-.8-1.3l2.2-2.6a.92.92 0 00.1-1l-1.8-2.9a.83.83 0 011-1.2l3.2 1.3a.76.76 0 00.9-.2l2.2-2.6a.79.79 0 011.4.6l-.3 3.4a.79.79 0 00.5.8l3.2 1.3a.8.8 0 01-.1 1.5l-3.3.8a.86.86 0 00-.6.7l-.3 3.4a.83.83 0 01-1.5.4l-1.8-2.9a.81.81 0 00-.9-.4z"/><path class="c" d="M71.93 29.29a.59.59 0 01-.8-.8l1.1-2.2a.62.62 0 00-.1-.7l-1.8-1.7a.58.58 0 01.5-1l2.4.4a.6.6 0 00.6-.3l1.1-2.2A.58.58 0 0176 21l.4 2.4c0 .3.2.4.5.5l2.4.4a.58.58 0 01.2 1.1l-2.2 1.1c-.2.1-.4.4-.3.6l.4 2.4a.58.58 0 01-1 .5l-1.8-1.7a.62.62 0 00-.7-.1z"/><path class="b" d="M210.93 26.39a1.79 1.79 0 01-2.3-2.5l3.7-6.5a1.81 1.81 0 00-.2-2.1L207 9.79a1.82 1.82 0 011.7-3l7.3 1.5a1.68 1.68 0 001.9-.9l3.7-6.5a1.78 1.78 0 013.3.7l.9 7.4a1.7 1.7 0 001.4 1.5l7.3 1.5a1.8 1.8 0 01.4 3.4l-6.8 3.1a1.75 1.75 0 00-1 1.8l.9 7.4a1.79 1.79 0 01-3.1 1.4l-5.1-5.5a1.83 1.83 0 00-2.1-.4z"/><path class="a" d="M150 38.79a.86.86 0 01-.6-1.5l2.7-2.2a.65.65 0 00.2-.9l-1.2-3.2a.83.83 0 011.2-1l2.9 1.9a.91.91 0 001 0l2.7-2.2a.81.81 0 011.3.8l-.9 3.3a.81.81 0 00.3.9l2.9 1.9a.81.81 0 01-.4 1.5l-3.4.2a.67.67 0 00-.7.6l-.9 3.3a.85.85 0 01-1.6.1l-1.2-3.2a.89.89 0 00-.8-.5z"/><path class="c" d="M163.93 14.69a.8.8 0 01-.8-1.3l2.2-2.7a1.18 1.18 0 00.1-1l-1.9-2.9a.81.81 0 011-1.2l3.2 1.2a1 1 0 00.9-.2l2.2-2.7a.79.79 0 011.4.6l-.2 3.4a.79.79 0 00.5.8l3.2 1.2a.85.85 0 01-.1 1.6l-3.3.9a.86.86 0 00-.6.7l-.2 3.4a.81.81 0 01-1.5.4l-1.9-2.9a.81.81 0 00-.9-.3z"/><path class="b" d="M111.53 28.19a.57.57 0 010-1.1l2.3-.8a.68.68 0 00.4-.6l-.1-2.5a.63.63 0 011.1-.4l1.5 2a.62.62 0 00.7.2l2.3-.8a.61.61 0 01.7.9l-1.4 2a.85.85 0 000 .7l1.5 2c.3.5-.1 1.1-.6.9l-2.4-.7a.66.66 0 00-.7.2l-1.4 2a.61.61 0 01-1.1-.3l-.1-2.5a.46.46 0 00-.4-.5z"/></svg>